<?xml version="1.0" standalone="no"?>
<!DOCTYPE svg PUBLIC "-//W3C//DTD SVG 20010904//EN"
 "http://www.w3.org/TR/2001/REC-SVG-20010904/DTD/svg10.dtd">
<svg version="1.0" xmlns="http://www.w3.org/2000/svg"
 width="1408.000000pt" height="1096.000000pt" viewBox="0 0 1408.000000 1096.000000"
 preserveAspectRatio="xMidYMid meet">
<metadata>
Created by potrace 1.16, written by Peter Selinger 2001-2019
</metadata>
<g transform="translate(0.000000,1096.000000) scale(0.100000,-0.100000)"
fill="#000000" stroke="none">
<path d="M8660 7925 c0 -8 -7 -15 -15 -15 -8 0 -15 -9 -15 -20 0 -11 -7 -20
-15 -20 -8 0 -15 -4 -15 -10 0 -5 -7 -10 -16 -10 -8 0 -22 -6 -30 -14 -8 -8
-14 -22 -14 -30 0 -9 -7 -16 -16 -16 -18 0 -44 -23 -44 -39 0 -6 -4 -11 -10
-11 -5 0 -10 -13 -10 -30 0 -20 -5 -30 -15 -30 -8 0 -15 -7 -15 -15 0 -8 -9
-15 -20 -15 -11 0 -20 -7 -20 -15 0 -8 -4 -15 -10 -15 -5 0 -10 -9 -10 -20 0
-13 -7 -20 -20 -20 -11 0 -20 -4 -20 -10 0 -5 -7 -10 -15 -10 -8 0 -15 -7 -15
-15 0 -8 -7 -15 -15 -15 -8 0 -15 -9 -15 -20 0 -11 -4 -20 -10 -20 -5 0 -10
-7 -10 -15 0 -8 -5 -15 -11 -15 -19 0 -39 -28 -39 -54 0 -21 5 -26 25 -26 23
0 25 4 25 40 0 36 3 40 25 40 22 0 25 4 25 35 0 24 5 35 15 35 8 0 15 7 15 15
0 8 7 15 16 15 20 0 44 24 44 44 0 9 8 16 20 16 11 0 20 7 20 15 0 8 7 15 15
15 8 0 15 7 15 15 0 8 5 15 10 15 6 0 10 9 10 20 0 11 5 20 10 20 6 0 10 11
10 25 0 21 5 25 30 25 27 0 30 3 30 30 0 23 4 30 20 30 11 0 20 5 20 10 0 6 7
10 15 10 8 0 15 5 15 10 0 6 7 10 15 10 8 0 15 9 15 20 0 11 5 20 10 20 6 0
10 7 10 15 0 8 -4 15 -10 15 -5 0 -10 -7 -10 -15z"/>
<path d="M8726 7495 c-4 -22 -13 -35 -22 -35 -23 0 -44 -26 -44 -54 0 -16 -6
-26 -15 -26 -8 0 -15 -4 -15 -10 0 -5 -16 -10 -35 -10 -24 0 -35 -5 -35 -15 0
-8 -4 -15 -10 -15 -5 0 -10 -9 -10 -20 0 -13 -7 -20 -20 -20 -11 0 -20 -4 -20
-10 0 -5 -9 -10 -20 -10 -11 0 -20 -7 -20 -15 0 -8 -7 -15 -15 -15 -8 0 -15
-9 -15 -20 0 -13 -7 -20 -20 -20 -15 0 -20 -7 -20 -25 0 -18 5 -25 20 -25 11
0 20 5 20 10 0 6 7 10 15 10 8 0 15 7 15 15 0 8 5 15 10 15 6 0 10 9 10 20 0
11 5 20 10 20 6 0 10 7 10 15 0 10 10 15 30 15 17 0 30 5 30 10 0 6 9 10 20
10 13 0 20 7 20 20 0 11 7 20 15 20 8 0 15 7 15 15 0 8 5 15 11 15 16 0 39 26
39 44 0 9 8 16 19 16 20 0 31 18 31 51 0 12 7 19 20 19 13 0 20 7 20 20 0 13
-7 20 -19 20 -14 0 -21 -10 -25 -35z"/>
<path d="M5920 7305 c-8 -2 -49 -9 -90 -15 -41 -7 -120 -27 -176 -45 -308
-101 -585 -318 -746 -587 -22 -38 -45 -68 -50 -68 -25 0 -124 -263 -159 -422
-36 -163 -38 -496 -3 -670 l6 -28 -306 0 c-281 0 -315 2 -438 25 -402 74 -793
241 -1218 520 -352 232 -737 569 -768 672 -15 50 -82 103 -130 103 -105 0
-193 -191 -222 -485 -31 -317 52 -712 216 -1024 24 -46 44 -85 44 -87 0 -10
-75 -2 -149 17 -102 26 -139 20 -180 -27 -26 -30 -31 -43 -31 -89 0 -29 13
-105 29 -168 89 -344 282 -671 581 -981 l105 -109 -50 9 c-97 17 -141 12 -174
-20 -17 -17 -35 -44 -40 -61 -18 -67 21 -205 90 -318 134 -218 467 -533 819
-773 l122 -83 -33 -21 c-59 -37 -231 -117 -319 -148 -285 -102 -566 -148 -975
-159 -153 -4 -241 -10 -262 -19 -40 -16 -73 -68 -73 -115 0 -66 32 -97 190
-181 518 -277 1076 -454 1650 -525 209 -25 728 -25 925 0 937 122 1710 509
2344 1173 426 446 762 1021 971 1664 66 201 119 418 184 745 105 529 137 603
375 864 173 189 284 317 302 346 35 57 14 144 -43 177 -15 8 -76 15 -170 18
l-147 5 121 190 c66 105 127 205 135 224 17 39 10 96 -12 105 -8 3 -15 11 -15
18 0 7 -8 18 -18 24 -37 24 -97 25 -212 5 -218 -39 -326 -52 -508 -61 -245
-13 -278 -6 -431 95 -202 132 -384 213 -591 262 -85 20 -138 25 -280 28 -96 2
-182 2 -190 0z m442 -289 c178 -47 355 -130 513 -240 80 -56 145 -82 250 -101
111 -19 360 -19 520 0 66 8 126 15 133 15 7 0 -14 -39 -46 -87 -150 -226 -177
-275 -177 -325 0 -42 5 -52 38 -85 l37 -38 124 -5 123 -5 -119 -130 c-252
-274 -296 -376 -413 -968 -80 -405 -135 -611 -234 -880 -203 -551 -489 -1013
-867 -1406 -584 -606 -1324 -974 -2169 -1078 -176 -21 -654 -24 -825 -5 -385
45 -777 143 -1135 285 l-130 52 65 8 c253 31 514 89 685 152 219 81 499 239
596 336 36 36 39 44 39 93 0 69 -19 93 -117 146 -240 129 -567 381 -781 600
-92 93 -182 203 -182 221 0 5 19 9 43 9 60 0 161 17 239 40 88 27 112 55 104
123 -10 73 -22 91 -105 155 -176 137 -384 357 -510 541 -91 133 -212 372 -235
464 l-6 27 72 0 c140 1 280 45 322 103 31 42 12 112 -59 221 -69 105 -152 279
-193 401 -79 239 -111 546 -74 724 l8 35 54 -62 c67 -76 276 -268 403 -369
415 -333 910 -588 1367 -703 261 -66 304 -70 757 -70 450 0 447 0 489 57 33
44 35 73 13 164 -95 398 -53 772 122 1071 48 83 206 248 313 329 130 99 313
178 485 210 25 4 118 6 206 4 131 -3 178 -8 257 -29z"/>
<path d="M8600 6020 c0 -43 -3 -50 -20 -50 -17 0 -20 -7 -20 -45 0 -25 -4 -45
-10 -45 -5 0 -10 -20 -10 -45 0 -38 -3 -45 -20 -45 -18 0 -20 -7 -20 -55 0
-30 -4 -55 -10 -55 -5 0 -10 -9 -10 -20 0 -11 -4 -20 -10 -20 -5 0 -10 -4 -10
-10 0 -5 9 -10 20 -10 16 0 20 7 20 30 0 23 4 30 20 30 17 0 20 7 20 50 0 28
5 50 10 50 6 0 10 23 10 50 0 43 3 50 20 50 15 0 20 7 20 25 0 16 6 25 15 25
12 0 15 14 15 70 0 56 -3 70 -15 70 -11 0 -15 -12 -15 -50z"/>
<path d="M8330 5410 c0 -20 -5 -30 -15 -30 -8 0 -15 -7 -15 -15 0 -8 -7 -15
-15 -15 -9 0 -15 -9 -15 -25 0 -14 -4 -25 -10 -25 -5 0 -10 -16 -10 -35 0 -19
-5 -35 -11 -35 -6 0 -17 -6 -25 -14 -8 -8 -14 -19 -14 -25 0 -6 -9 -11 -20
-11 -13 0 -20 -7 -20 -20 0 -11 -7 -20 -15 -20 -8 0 -15 -4 -15 -10 0 -5 -7
-10 -15 -10 -8 0 -15 -4 -15 -10 0 -5 -15 -10 -34 -10 -31 0 -34 -3 -40 -35
-4 -21 -13 -35 -21 -35 -8 0 -15 -7 -15 -15 0 -10 -10 -15 -30 -15 -23 0 -30
-4 -30 -20 0 -16 -7 -20 -35 -20 -19 0 -35 -4 -35 -10 0 -5 -13 -10 -30 -10
-20 0 -30 -5 -30 -15 0 -8 -9 -15 -20 -15 -11 0 -20 -7 -20 -15 0 -8 -7 -15
-15 -15 -8 0 -15 -7 -15 -15 0 -10 -10 -15 -30 -15 -25 0 -30 -4 -30 -25 0
-14 5 -25 10 -25 6 0 10 5 10 10 0 6 16 10 35 10 24 0 35 5 35 15 0 8 9 15 20
15 11 0 20 7 20 15 0 8 9 15 20 15 11 0 20 7 20 15 0 10 10 15 30 15 27 0 30
-3 30 -30 0 -23 -4 -30 -20 -30 -15 0 -20 -7 -20 -25 0 -18 5 -25 20 -25 16 0
20 -7 20 -30 0 -20 5 -30 15 -30 10 0 15 -11 15 -35 0 -32 2 -35 30 -35 17 0
30 -4 30 -10 0 -5 9 -10 20 -10 11 0 20 5 20 10 0 6 -9 10 -20 10 -13 0 -20 7
-20 20 0 11 -7 20 -15 20 -8 0 -15 7 -15 15 0 8 7 15 15 15 8 0 15 7 15 15 0
8 -7 15 -15 15 -9 0 -15 9 -15 25 0 21 -5 25 -30 25 -20 0 -30 5 -30 15 0 8 7
15 15 15 10 0 15 10 15 30 0 20 -5 30 -15 30 -8 0 -15 7 -15 15 0 8 7 15 15
15 8 0 15 5 15 10 0 6 14 10 30 10 23 0 30 4 30 20 0 13 7 20 20 20 11 0 20 7
20 15 0 8 9 15 20 15 11 0 20 7 20 15 0 11 12 15 45 15 33 0 45 -4 45 -15 0
-8 9 -15 20 -15 11 0 20 7 20 15 0 8 -9 15 -20 15 -16 0 -20 7 -20 30 0 23 4
30 20 30 16 0 20 7 20 30 0 17 5 30 10 30 6 0 10 7 10 15 0 8 5 15 11 15 20 0
39 29 39 59 0 21 5 31 15 31 8 0 15 7 15 15 0 8 7 15 15 15 8 0 15 5 15 10 0
6 9 10 20 10 16 0 20 7 20 30 0 17 5 30 10 30 6 0 10 7 10 15 0 10 -10 15 -30
15 -27 0 -30 -3 -30 -30z"/>
<path d="M10820 2381 c-69 -25 -94 -53 -86 -100 3 -18 7 -35 9 -38 3 -2 26 8
52 22 62 32 108 33 140 0 53 -52 18 -137 -113 -279 -66 -72 -94 -109 -98 -135
-12 -64 -9 -66 204 -69 l192 -2 6 25 c3 14 3 36 0 50 l-6 25 -126 0 -126 0 89
94 c109 114 143 175 143 259 0 104 -52 156 -164 164 -44 2 -77 -2 -116 -16z"/>
<path d="M11349 2391 c-109 -36 -156 -150 -147 -355 4 -90 9 -112 34 -163 39
-78 74 -98 175 -98 66 0 81 3 118 28 68 45 94 113 99 258 7 179 -24 276 -100
315 -37 19 -140 28 -179 15z m120 -110 c25 -25 41 -104 41 -204 0 -95 -13
-153 -43 -184 -26 -29 -79 -31 -106 -4 -25 25 -41 104 -41 199 1 145 31 212
97 212 19 0 41 -8 52 -19z"/>
<path d="M12310 2387 c-159 -51 -173 -323 -19 -367 48 -14 100 -12 148 5 l41
14 0 -26 c0 -47 -38 -110 -77 -128 -36 -17 -111 -17 -170 1 -22 6 -23 3 -23
-40 0 -42 3 -48 28 -57 47 -18 119 -22 169 -10 78 20 117 52 154 127 30 60 33
76 37 178 7 174 -25 257 -112 297 -45 21 -122 23 -176 6z m127 -92 c25 -17 43
-71 43 -127 0 -31 -5 -40 -30 -53 -40 -21 -93 -19 -121 4 -20 16 -24 28 -24
81 0 55 3 65 28 86 32 27 73 31 104 9z"/>
<path d="M7006 2382 c-3 -5 -8 -29 -11 -53 -12 -86 -13 -88 -48 -91 -29 -3
-32 -6 -32 -38 0 -31 3 -35 28 -38 30 -4 30 -7 21 -89 -7 -52 -7 -53 -40 -53
-24 0 -34 -5 -39 -20 -11 -34 4 -60 34 -60 l27 0 -8 -67 c-10 -87 -7 -95 39
-91 41 3 39 0 58 121 l6 37 50 0 51 0 -7 -80 -7 -80 40 0 c23 0 43 4 46 9 3 5
9 40 12 79 l7 71 36 3 c34 3 36 5 36 38 0 31 -3 35 -27 38 -31 4 -33 13 -22
96 6 44 8 46 40 46 33 0 34 1 34 40 0 38 -2 40 -30 40 -29 0 -31 2 -26 33 3
17 7 50 8 72 3 39 2 40 -30 43 -43 4 -62 -12 -62 -53 0 -18 -3 -47 -6 -64 -6
-30 -8 -31 -59 -31 l-52 0 9 62 c5 35 6 68 3 75 -5 14 -71 18 -79 5z"/>
<path d="M7364 2376 c-3 -8 -4 -29 -2 -48 l3 -33 82 -3 83 -3 2 -252 3 -252
55 0 55 0 3 252 2 252 83 3 82 3 0 45 0 45 -223 3 c-185 2 -223 0 -228 -12z"/>
<path d="M9515 2380 c-22 -35 -204 -585 -197 -592 5 -5 31 -8 58 -6 l49 3 22
65 22 65 117 0 117 0 22 -65 22 -65 56 -3 c41 -2 59 1 62 10 5 12 -172 535
-196 579 -8 16 -21 19 -79 19 -38 0 -72 -4 -75 -10z m115 -236 c22 -65 40
-122 40 -126 0 -4 -38 -8 -85 -8 -47 0 -85 3 -85 7 0 16 82 254 86 250 3 -2
22 -57 44 -123z"/>
<path d="M11808 2340 c-72 -47 -78 -53 -78 -85 0 -19 4 -36 8 -39 5 -3 34 8
65 25 l57 30 0 -196 0 -195 -60 0 c-55 0 -60 -2 -66 -25 -3 -14 -3 -36 0 -50
l6 -25 178 2 177 3 0 45 0 45 -52 3 -53 3 -2 252 -3 252 -50 3 c-45 2 -57 -3
-127 -48z"/>
<path d="M8677 2334 c-4 -4 -7 -29 -7 -55 0 -47 -1 -48 -32 -51 -32 -3 -33 -5
-33 -48 0 -43 1 -45 33 -48 l32 -3 0 -130 c0 -154 11 -192 64 -214 41 -17 94
-19 130 -5 23 8 26 15 26 54 l0 44 -38 -5 c-58 -8 -66 9 -71 144 l-3 113 56 0
56 0 0 50 0 50 -54 0 -55 0 -3 53 -3 52 -45 3 c-25 2 -49 0 -53 -4z"/>
<path d="M9055 2230 c-59 -20 -95 -66 -95 -123 0 -65 23 -94 107 -135 90 -43
105 -62 79 -91 -24 -27 -77 -27 -135 -1 -24 11 -45 20 -47 20 -2 0 -4 -19 -4
-43 0 -60 37 -82 135 -82 119 1 180 53 172 148 -5 62 -39 98 -118 127 -67 25
-82 39 -77 72 4 33 47 45 101 30 69 -21 72 -20 75 15 3 25 -2 35 -22 48 -30
20 -129 28 -171 15z"/>
<path d="M10081 2204 l-40 -35 -3 28 c-3 26 -6 28 -48 28 l-45 0 0 -220 0
-220 34 -3 c19 -2 44 -1 57 2 24 6 24 8 24 145 l0 139 30 32 c27 29 35 32 69
26 44 -7 51 2 51 59 0 65 -68 75 -129 19z"/>
<path d="M10366 2230 c-87 -28 -133 -141 -87 -217 19 -31 19 -31 0 -48 -30
-28 -35 -81 -11 -115 21 -27 21 -28 2 -45 -11 -10 -24 -33 -30 -51 -10 -28 -8
-41 7 -72 25 -52 88 -74 198 -69 157 7 242 95 190 197 -23 45 -67 62 -172 68
-95 5 -121 16 -109 47 4 13 15 14 54 9 95 -12 170 29 194 108 9 29 9 47 1 69
-11 28 -10 29 17 29 29 0 39 20 32 68 -3 20 -9 22 -65 22 -34 0 -91 2 -127 5
-36 2 -78 0 -94 -5z m114 -88 c16 -13 22 -29 22 -57 0 -46 -28 -75 -72 -75
-33 0 -70 40 -70 75 0 61 73 95 120 57z m31 -362 c23 -13 25 -52 4 -70 -21
-18 -104 -24 -137 -11 -32 12 -37 44 -11 73 18 20 110 26 144 8z"/>
<path d="M7894 2216 c-3 -8 -4 -91 -2 -185 3 -153 5 -172 24 -198 52 -71 149
-81 229 -24 l44 31 3 -27 c3 -26 6 -28 48 -28 l45 0 0 220 0 220 -34 3 c-19 2
-44 1 -57 -2 -24 -6 -24 -7 -24 -150 l0 -144 -35 -31 c-48 -42 -93 -41 -117 3
-7 12 -14 85 -18 171 l-5 150 -48 3 c-35 2 -49 -1 -53 -12z"/>
<path d="M8423 2223 c-10 -3 -13 -57 -13 -219 l0 -214 24 -6 c13 -3 38 -4 57
-2 l34 3 3 214 c2 165 -1 216 -10 223 -14 8 -75 10 -95 1z"/>
</g>
</svg>
